PathFileType	4	(X/Y/Z)	Patient4_TMGait_0pt4_01_left_17.trc.trc
DataRate	CameraRate	NumFrames	NumMarkers	Units	OrigDataRate	OrigDataStartFrame	OrigNumFrames
378.378378378377	378.378378378377	5	33	mm	378.378378378377	1	       141
Frame#	Time	Sacral			L.Shoulder			Chest			R.Shoulder			Neck			R.ASIS			L.ASIS			R.Thigh.Superior			R.Thigh.Lateral			R.Thigh.Inferior			R.Patella			L.Thigh.Superior			L.Thigh.Lateral			L.Thigh.Inferior			L.Patella			L.Shank.Superior			L.Shank.Lateral			L.Shank.Inferior			R.Shank.Superior			R.Shank.Lateral			R.Shank.Inferior			R.Heel			R.Midfoot.Superior			R.Midfoot.Lateral			R.Toe			L.Heel			L.Midfoot.Lateral			L.Midfoot.Superior			L.Toe			L.Elbow			L.Wrist			R.Elbow			R.Wrist			
		X1	Y1	Z1	X2	Y2	Z2	X3	Y3	Z3	X4	Y4	Z4	X5	Y5	Z5	X6	Y6	Z6	X7	Y7	Z7	X8	Y8	Z8	X9	Y9	Z9	X10	Y10	Z10	X11	Y11	Z11	X12	Y12	Z12	X13	Y13	Z13	X14	Y14	Z14	X15	Y15	Z15	X16	Y16	Z16	X17	Y17	Z17	X18	Y18	Z18	X19	Y19	Z19	X20	Y20	Z20	X21	Y21	Z21	X22	Y22	Z22	X23	Y23	Z23	X24	Y24	Z24	X25	Y25	Z25	X26	Y26	Z26	X27	Y27	Z27	X28	Y28	Z28	X29	Y29	Z29	X30	Y30	Z30	X31	Y31	Z31	X32	Y32	Z32	X33	Y33	Z33	

1	21.220000000000	727.371898657082	1009.688219151113	461.354562965103	896.378073535147	1435.821944326468	274.588762332125	1014.426675537635	1366.721660854937	424.740530706463	950.756150455815	1440.634645707316	607.329302939373	900.620257239119	1498.206781753192	439.740746754252	961.109512656051	943.895801106387	564.047175535548	930.885766628130	968.354181730401	292.072015414728	996.262027241984	741.195698961432	534.976544178904	914.642892150185	632.979617405901	594.833478976716	990.842482320858	581.355142726046	513.303110947261	989.708523002276	493.763179389048	518.896467215612	1008.036497748591	778.026082210129	308.241479138717	951.079576451484	656.104981401242	225.836178879030	1056.604794838403	589.361626910086	273.720144704170	1068.496656992549	504.090429503932	263.019070220030	1010.708913361727	434.076409433664	256.724542813460	875.047160667843	370.922751229274	215.917265455839	889.547200412946	238.688486212625	264.228096532408	960.777166135755	405.025258089268	523.501671372461	888.849026457492	301.043957098887	584.804748853706	928.606371865380	207.249524348404	517.592143347629	790.969428350004	42.989514057220	486.449292850356	965.353555935720	96.862735302519	517.704682053774	877.083182044168	36.200222352145	557.687115546406	1084.981783691106	41.401100110092	538.742122356120	718.207433650967	135.009817835663	312.178270032432	775.891138397524	109.888926959757	223.523937809319	878.753392613789	138.551067558447	237.910205572301	975.141540460642	49.202143141877	192.758775722282	829.426409894407	1084.085968075774	175.738554370501	886.042709619380	830.511187327648	145.773830374232	989.925131825227	1094.977330088262	729.303361209282	1187.994715324105	931.532454379849	693.122504212299	
2	21.222642857143	727.291434925440	1009.725214706276	461.736395417264	896.019743106989	1435.945829782731	274.896920620218	1014.249905494650	1366.777732407763	424.874767082609	950.867368087190	1440.674315968398	607.577444393892	900.518256210712	1498.290899416104	440.034241094959	961.038643573752	943.976862966488	564.146961546903	930.588541944627	968.506994664772	292.187866503819	995.924506210123	741.199872593602	535.140860383117	914.201469606201	633.051839314586	595.037514740987	990.363898902089	581.324876282936	513.522126712905	989.132467260339	493.700824695784	519.156678742900	1007.814365711994	778.349359584840	308.160009265684	950.866354370519	656.378263721159	225.729257454158	1056.563463419518	589.787657064628	273.380051696855	1068.667249648168	504.692754249434	262.625061257605	1011.349178970500	434.503062441470	256.276106804258	876.168195221647	370.324440431854	215.590139525107	891.883281741463	238.083256351573	263.600952841771	960.100010849067	404.988983242292	523.698878334890	887.942243257231	301.098752139905	584.909797831926	927.715654870875	207.261528781568	517.725530475690	789.937189195133	43.023025199185	486.480390629201	964.321021361660	96.868250627063	517.779864513091	876.047012654345	36.246848932727	557.760493888620	1083.946026817099	41.367432281926	538.771025759614	721.557415449595	132.899771158034	311.649499743124	779.262341364718	108.349232368417	222.874578227774	881.913738862227	137.857936228688	237.104831242206	978.943512116804	49.403701598057	191.631878208743	827.735684525833	1084.369095041347	176.432869089991	882.867523387577	830.518927813777	146.508165962033	991.436401129923	1095.255645844930	729.483208379545	1190.699530324273	933.449935101982	692.892640321483	
3	21.225285714286	727.202728148822	1009.766832409534	462.108279910417	895.660442606159	1436.068041911766	275.203978532969	1014.077936040392	1366.830391390794	424.998380205150	950.977359675717	1440.709484838583	607.820608058682	900.414646661608	1498.371863702035	440.328142057801	960.970716978197	944.058241246293	564.240589864443	930.290782426351	968.653304792658	292.296981450757	995.585202990175	741.200623062119	535.300814346899	913.757853626671	633.113788236441	595.227200000798	989.888877090337	581.294744598197	513.735855964528	988.557375501274	493.640232903254	519.415283409216	1007.586877611698	778.658710510694	308.068948074124	950.636245167632	656.631150071006	225.623920791224	1056.507896363247	590.198297082293	273.040715128984	1068.819353477049	505.283317031790	262.235462850260	1011.977326003592	434.920462782661	255.831323250030	877.282904657412	369.709329410197	215.262494196790	894.227244251643	237.465782171395	262.957603031352	959.425791728102	404.954500392975	523.893442482264	887.038376434636	301.150515860013	585.006063961442	926.821697203865	207.272770058653	517.855112204156	788.906929887641	43.054071542477	486.511066177280	963.292387048736	96.870265187622	517.841695350405	875.010596051714	36.288126769582	557.823649653207	1082.908499660172	41.334094858216	538.797790222428	724.929362992781	130.757538401852	311.109682459795	782.657194097726	106.800320851981	222.207175754366	885.085138532084	137.156155439820	236.286791863875	982.763937579001	49.609689744093	190.490816758233	826.051126005585	1084.655241202267	177.118856388115	879.705179241902	830.533922877277	147.235363158416	992.938993790500	1095.526985620507	729.659165286989	1193.386902012316	935.362511808059	692.659951117177	
4	21.227928571429	727.104482788637	1009.812600232323	462.469779366651	895.299979417656	1436.188308287007	275.509405694254	1013.909640953775	1366.879146084075	425.112326671133	951.085790619122	1440.739043157695	608.058403202421	900.309038691192	1498.448811586363	440.622063556393	960.905982264493	944.138892008885	564.327107596806	929.991991031319	968.791855622073	292.399263680292	995.244762449276	741.197661245762	535.455132649095	913.313073803136	633.165535285430	595.402762918129	989.417187842259	581.263830013786	513.943720322508	987.983142209395	493.580867715521	519.670742359891	1007.352596567948	778.951966592352	307.967823852366	950.387746890988	656.862340031096	225.520276520972	1056.435497856638	590.590410207195	272.703854903522	1068.950223108761	505.859771411276	261.852051052413	1012.591544831724	435.327448799880	255.390347622448	878.391365278818	369.076221671383	214.933279552216	896.579472424728	236.836568287663	262.297634492761	958.753907474419	404.921207497973	524.084149438240	886.137962764533	301.199113764071	585.093534110120	925.925037985975	207.283013022475	517.979679002340	787.877899794066	43.083023794057	486.540636310884	962.267297146381	96.870275768751	517.891776943576	873.973512668173	36.323970938960	557.875844006098	1081.869083415438	41.301062472385	538.822473700534	728.325526028427	128.585169331410	310.556159894366	786.077926551955	105.242474250427	221.519711055129	888.269349625679	136.446665496957	235.453639457670	986.603563273504	49.821670270972	189.333782798542	824.374509283566	1084.944306422103	177.793587963081	876.558362321094	830.557762533943	147.953321846666	994.432261140066	1095.791081428288	729.830432928165	1196.053985262836	937.269624534256	692.423583814690	
5	21.230571428571	726.995403306293	1009.862046146077	462.820456708056	894.938160926474	1436.306356481892	275.812671727946	1013.743894013715	1366.923504767651	425.217563077605	951.192326315132	1440.761881765561	608.290439093792	900.201042398848	1498.520880044471	440.915619504352	960.844688827746	944.217771317349	564.405561852628	929.691670717545	968.921390661032	292.494616617173	994.903829454567	741.190698023311	535.602541868552	912.868159727134	633.207151575518	595.564431654960	988.948602114513	581.231214871661	514.145141407229	987.409661869014	493.522192836653	519.921516740259	1007.110085700987	779.226959434476	307.856164888741	950.119357588755	657.070533181746	225.418432274147	1056.343672086737	590.960859683448	272.371190923432	1069.057113172874	506.419770948172	261.476601918481	1013.190025825620	435.722858835773	254.953335393179	879.493653389551	368.423920722490	214.601445672715	898.940350741973	236.196119315952	261.620634617607	958.083756789574	404.888502513943	524.269784826473	885.241539021746	301.244411356939	585.172195145827	925.026216338822	207.292022515850	518.098021339553	786.849348280942	43.110252660888	486.568417846307	961.245395804023	96.869779155005	517.931711670462	872.935342935619	36.354296517115	557.916338113223	1080.827659278008	41.268309757856	538.845134149900	731.748154304447	126.384713710992	309.986273758755	789.526768682821	103.675974403727	220.810164796095	891.468130145346	135.730406705207	234.602926043949	990.463135626601	50.041205869681	188.158967757454	822.707609309671	1085.236190564424	178.454135513101	873.429757763880	830.592036799568	148.659941910068	995.915554511733	1096.047665281569	729.996212299622	1198.697934950443	939.170713316752	692.182685629333	
